/* XPM */
static char *_ac9c10e94b1454ad179a38c555469adQ8tRyyDAW1bsvCiX[] = {
/* columns rows colors chars-per-pixel */
"100 100 4 1 ",
"  c None",
". c black",
"X c #FFA3B1",
"o c white",
/* pixels */
"                                                                                                    ",
"                                                                                                    ",
"                                                                                                    ",
"                                                                                                    ",
"                                                                                                    ",
"                                                                                                    ",
"                                                                                                    ",
"                                                                                                    ",
"                                                                                                    ",
"                                                                                                    ",
"                                                                                                    ",
"                                                                                                    ",
"                                                                                                    ",
"                                                                                                    ",
"                                                                                                    ",
"                                                                                                    ",
"                                                                                                    ",
"                                                                                                    ",
"                          ...................................................                       ",
"                          .XXXXXXXXXXXXXXXXXXXXXXXXXXXXXXXXXXXXXXXXXXXXXXXXX.                       ",
"                          .XXXXXXXXXXXXXXXXXXXXXXXXXXXXXXXXXXXXXXXXXXXXXXXXX.                       ",
"                          .XXXXXXXXXXXXXXXXXXXXXXXXXXXXXXXXXXXXXXXXXXXXXXXXX.                       ",
"                          .XXXXXXXXXXXXXXXXXXXXXXXXXXXXXXXXXXXXXXXXXXXXXXXXX.                       ",
"                          .XXXXXXXXXXXXXXXXXXXXXXXXXXXXXXXXXXXXXXXXXXXXXXXXX.                       ",
"                          .XXXXXXXXXXXXXXXXXXXXXXXXXXXXXXXXXXXXXXXXXXXXXXXXX.                       ",
"                          .XXXXXXXXXXXXXXXXXXXXXXXXXXXXXXXXXXXXXXXXXXXXXXXXX.                       ",
"                          .XXXXXXXXXXXXXXXXXXXXXXXX..........................                       ",
"                          .XXXXXXXXXXXXXXXXXXXXXXXX..........................                       ",
"                          .XXXXXXXXXXXXXXXXXXXXXXXX..........................                       ",
"                          .XXXXXXXXXXXXXXXXXXXXXXXX..........................                       ",
"                          .XXXXXXXXXXXXXXXXXXXXXXXX..........................                       ",
"                          .XXXXXXXXXXXXXXXXXXXXXXXX..........................                       ",
"                          .XXXXXXXXXXXXXXXXXXXXXXXX..........................                       ",
"                          .XXXXXXXXXXXXXXXXXXXXXXXX..........................                       ",
"                          .XXXXXXXXXXXXXXXXXXXXXXXX..........................                       ",
"                          .XXXXXXXXXXXXXXXXXXXXXXXX..........................                       ",
"                          .XXXXXXXXXXXXXXXXXXXXXXXX..........................                       ",
"                          .XXXXXXXXXXXXXXXXXXXXXXXX..........................                       ",
"                          .XXXXXXXXXXXXXXXXXXXXXXXX..........................                       ",
"                          .XXXXXXXXXXXXXXXXXXXXXXXX..........................                       ",
"                          .XXXXXXXXXXXXXXXXXXXXXXXX..........................                       ",
"                          .XXXXXXXXXXXXXXXXXXXXXXXX..........................                       ",
"                          .XXXXXXXXXXXXXXXXXXXXXXXX..........................                       ",
"                          .XXXXXXXXXXXXXXXXXXXXXXXX..........................                       ",
"                          .XXXXXXXXXXXXXXXXXXXXXXXX..........................                       ",
"                          .XXXXXXXXXXXXXXXXXXXXXXXX..........................                       ",
"                          .XXXXXXXXXXXXXXXXXXXXXXXX..........................                       ",
"                          .XXXXXXXXXXXXXXXXXXXXXXXXXXXXXXXXXXXXXXXXXXXXXXXXX.                       ",
"                          .XXXXXXXXXXXXXXXXXXXXXXXXXXXXXXXXXXXXXXXXXXXXXXXXX.                       ",
"                          .XXXXXXXXXXXXXXXXXXXXXXXXXXXXXXXXXXXXXXXXXXXXXXXXX.                       ",
"                          .XXXXXXXXXXXXXXXXXXXXXXXXXXXXXXXXXXXXXXXXXXXXXXXXX.                       ",
"                          .XXXXXXXXXXXXXXXXXXXXXXXXXXXXXXXXXXXXXXXXXXXXXXXXX.                       ",
"                          .XXXXXXXXXXXXXXXXXXXXXXXXXXXXXXXXXXXXXXXXXXXXXXXXX.                       ",
"                          .XXXXXXXXXXXXXXXXXXXXXXXXXXXXXXXXXXXXXXXXXXXXXXXXX.                       ",
"                          .XXXXXXXXXXXXXXXXXXXXXXXXXXXXXXXXXXXXXXXXXXXXXXXXX.                       ",
"                          .XXXXXXXXXXXXXXXXXXXXXXXXXXXXXXXXXXXXXXXXXXXXXXXXX.                       ",
"                          ...................................................                       ",
"                                       .XXXXXXXXXXXXXXXXXXXXXXXX.                                   ",
"                                       .XXXXXXXXXXXXXXXXXXXXXXXX.                                   ",
"                                       .XXXXXXXXXXXXXXXXXXXXXXXX.                                   ",
"                                       .XXXXXXXXXXXXXXXXXXXXXXXX.                                   ",
"                                       .XXXXXXXXXXXXXXXXXXXXXXXX.                                   ",
"                                       .XXXXXXXXXXXXXXXXXXXXXXXX.                                   ",
"                                       .XXXXXXX.........XXXXXXXX.                                   ",
"                                       .XXXXXXX.XXXXXXX.XXXXXXXX.                                   ",
"                                       .XXXXXXX.XXXXXXX.XXXXXXXX.                                   ",
"                                       .XXXXXXX.XXXXXXX.XXXXXXXX.                                   ",
"                                       .XXXXXXX.XXXXXXX.XXXXXXXX.                                   ",
"                                       .XXXXXXX.XXXXXXX.XXXXXXXX.                                   ",
"                                       .XXXXXXX.XXXXXXX.XXXXXXXX.                                   ",
"                                       .XXXXXXX.XXXXXXX.XXXXXXXX.                                   ",
"                                       .XXXXXXX.XXXXXXX.XXXXXXXX.                                   ",
"                                       .XXXXXXX.XXXXXXX.XXXXXXXX.                                   ",
"                                       .XXXXXXX.XXXXXXX.XXXXXXXX.                                   ",
"                                       .XXXXXXX.XXXXXXX.XXXXXXXX.                                   ",
"                                       .XXXXXXX.XXXXXXX.XXXXXXXX.                                   ",
"                                       .XXXXXXX.XXXXXXX.XXXXXXXX.                                   ",
"                                       .XXXXXXX.XXXXXXX.XXXXXXXX.                                   ",
"                                       .XXXXXXX.XXXXXXX.XXXXXXXX.                                   ",
"                                       .XXXXXXX.XXXXXXX.XXXXXXXX.                                   ",
"                                       .XXXXXXX.XXXXXXX.XXXXXXXX.                                   ",
"                                       .XXXXXXX.XXXXXXX.XXXXXXXX.                                   ",
"                                       .XXXXXXX.XXXXXXX.XXXXXXXX.                                   ",
"                                       .XXXXXXX.XXXXXXX.XXXXXXXX.                                   ",
"                                       .XXXXXXX.XXXXXXX.XXXXXXXX.                                   ",
"                                       .XXXXXXX.XXXXXXX.XXXXXXXX.                                   ",
"                                       .XXXXXXX.XXXXXXX.XXXXXXXX.                                   ",
"                                       .XXXXXXX.XXXXXXX.XXXXXXXX.                                   ",
"                                       .XXXXXXX.........XXXXXXXX.                                   ",
"                                       .XXXXXXXXXXXXXXXXXXXXXXXX.                                   ",
"                                       .XXXXXXXXXXXXXXXXXXXXXXXX.                                   ",
"                                       .XXXXXXXXXXXXXXXXXXXXXXXX.                                   ",
"                                       .XXXXXXXXXXXXXXXXXXXXXXXX.                                   ",
"                                       .XXXXXXXXXXXXXXXXXXXXXXXX.                                   ",
"                                       .XXXXXXXXXXXXXXXXXXXXXXXX.                                   ",
"                                       .XXXXXXXXXXXXXXXXXXXXXXXX.                                   ",
"                                       .XXXXXXXXXXXXXXXXXXXXXXXX.                                   ",
"                                       .XXXXXXXXXXXXXXXXXXXXXXXX.                                   ",
"                                       .XXXXXXXXXXXXXXXXXXXXXXXX.                                   ",
"                                       ..........................                                   "
};
