/* XPM */
static char *a0a640d4ee394a9d9399d5da34ce9b12W9UchTxNSmZU74A8[] = {
/* columns rows colors chars-per-pixel */
"100 100 4 1 ",
"  c None",
". c black",
"X c #FFA3B1",
"o c white",
/* pixels */
"                                                                                                    ",
"                                                                                                    ",
"                                                                                                    ",
"                                                                                                    ",
"                                                                                                    ",
"                                                                                                    ",
"                                                                                                    ",
"                                                                                                    ",
"                                                                                                    ",
"                                                                                                    ",
"                                                                                                    ",
"                                                                                                    ",
"                                                                                                    ",
"                                                                                                    ",
"                                                                                                    ",
"                                                                                                    ",
"                                                                                                    ",
"                                                                                                    ",
"                          ...................................................                       ",
"                          .XXXXXXXXXXXXXXXXXXXXXXXXXXXXXXXXXXXXXXXXXXXXXXXXX.                       ",
"                          .XXXXXXXXXXXXXXXXXXXXXXXXXXXXXXXXXXXXXXXXXXXXXXXXX.                       ",
"                          .XXXXXXXXXXXXXXXXXXXXXXXXXXXXXXXXXXXXXXXXXXXXXXXXX.                       ",
"                          .XXXXXXXXXXXXXXXXXXXXXXXXXXXXXXXXXXXXXXXXXXXXXXXXX.                       ",
"                          .XXXXXXXXXXXXXXXXXXXXXXXXXXXXXXXXXXXXXXXXXXXXXXXXX.                       ",
"                          .XXXXXXXXXXXXXXXXXXXXXXXXXXXXXXXXXXXXXXXXXXXXXXXXX.                       ",
"                          .XXXXXXXXXXXXXXXXXXXXXXXXXXXXXXXXXXXXXXXXXXXXXXXXX.                       ",
"                          .XXXXXXXXXXXXXXXXXXXXXXXXXXXXXXXXXXXXXXXXXXXXXXXXX.                       ",
"                          .XXXXXXXXXXXXXXXXXXXXXXXXXXXXXXXXXXXXXXXXXXXXXXXXX.                       ",
"                          .XXXXXXXXXXXXXXXXXXXXXXXXXXXXXXXXXXXXXXXXXXXXXXXXX.                       ",
"                          .XXXXXXXXXXXXXXXXXXXXXXXXXXXXXXXXXXXXXXXXXXXXXXXXX.                       ",
"                          .XXXXXXXXXXXXXXXXXXXXXXXXXXXXXXXXXXXXXXXXXXXXXXXXX.                       ",
"                          .XXXXXXXXXXXXXXXXXXXXXXXXXXXXXXXXXXXXXXXXXXXXXXXXX.                       ",
"                          .XXXXXXXXXXXXXXXXXXXXXXXXXXXXXXXXXXXXXXXXXXXXXXXXX.                       ",
"                          .XXXXXXXXXXXXXXXXXXXXXXXXXXXXXXXXXXXXXXXXXXXXXXXXX.                       ",
"                          .XXXXXXXXXXXXXXXXXXXXXXXXXXXXXXXXXXXXXXXXXXXXXXXXX.                       ",
"                          .XXXXXXXXXXXXXXXXXXXXXXXXXXXXXXXXXXXXXXXXXXXXXXXXX.                       ",
"                          .XXXXXXXXXXXXXXXXXXXXXXXXXXXXXXXXXXXXXXXXXXXXXXXXX.                       ",
"                          .XXXXXXXXXXXXXXXXXXXXXXXXXXXXXXXXXXXXXXXXXXXXXXXXX.                       ",
"                          .XXXXXXXXXXXXXXXXXXXXXXXXXXXXXXXXXXXXXXXXXXXXXXXXX.                       ",
"                          .XXXXXXXXXXXXXXXXXXXXXXXXXXXXXXXXXXXXXXXXXXXXXXXXX.                       ",
"                          .XXXXXXXXXXXXXXXXXXXXXXXXXXXXXXXXXXXXXXXXXXXXXXXXX.                       ",
"                          .XXXXXXXXXXXXXXXXXXXXXXXXXXXXXXXXXXXXXXXXXXXXXXXXX.                       ",
"                          .XXXXXXXXXXXXXXXXXXXXXXXXXXXXXXXXXXXXXXXXXXXXXXXXX.                       ",
"                          .XXXXXXXXXXXXXXXXXXXXXXXXXXXXXXXXXXXXXXXXXXXXXXXXX.                       ",
"                          .XXXXXXXXXXXXXXXXXXXXXXXXXXXXXXXXXXXXXXXXXXXXXXXXX.                       ",
"                          .XXXXXXXXXXXXXXXXXXXXXXXXXXXXXXXXXXXXXXXXXXXXXXXXX.                       ",
"                          .XXXXXXXXXXXXXXXXXXXXXXXXXXXXXXXXXXXXXXXXXXXXXXXXX.                       ",
"                          .XXXXXXXXXXXXXXXXXXXXXXXXXXXXXXXXXXXXXXXXXXXXXXXXX.                       ",
"                          .XXXXXXXXXXXXXXXXXXXXXXXXXXXXXXXXXXXXXXXXXXXXXXXXX.                       ",
"                          .XXXXXXXXXXXXXXXXXXXXXXXXXXXXXXXXXXXXXXXXXXXXXXXXX.                       ",
"                          .XXXXXXXXXXXXXXXXXXXXXXXXXXXXXXXXXXXXXXXXXXXXXXXXX.                       ",
"                          .XXXXXXXXXXXXXXXXXXXXXXXXXXXXXXXXXXXXXXXXXXXXXXXXX.                       ",
"                          .XXXXXXXXXXXXXXXXXXXXXXXXXXXXXXXXXXXXXXXXXXXXXXXXX.                       ",
"                          .XXXXXXXXXXXXXXXXXXXXXXXXXXXXXXXXXXXXXXXXXXXXXXXXX.                       ",
"                          .XXXXXXXXXXXXXXXXXXXXXXXXXXXXXXXXXXXXXXXXXXXXXXXXX.                       ",
"                          .XXXXXXXXXXXXXXXXXXXXXXXXXXXXXXXXXXXXXXXXXXXXXXXXX.                       ",
"                          ...................................................                       ",
"                                       ..........................                                   ",
"                                       .XXXXXXXXXXXXXXXXXXXXXXXX.                                   ",
"                                       .XXXXXXXXXXXXXXXXXXXXXXXX.                                   ",
"                                       .XXXXXXXXXXXXXXXXXXXXXXXX.                                   ",
"                                       .XXXXXXXXXXXXXXXXXXXXXXXX.                                   ",
"                                       .XXXXXXXXXXXXXXXXXXXXXXXX.                                   ",
"                                   .....XXXXXXXXXXXXXXXXXXXXXXXX.....                               ",
"                                   .XXX.XXXXXXXXXXXXXXXXXXXXXXXX.XXX.                               ",
"                                   .XXX.XXXXXXXXXXXXXXXXXXXXXXXX.XXX.                               ",
"                                   .XXX.XXXXXXXXXXXXXXXXXXXXXXXX.XXX.                               ",
"                                   .XXX.XXXXXXXXXXXXXXXXXXXXXXXX.XXX.                               ",
"                                   .XXX.XXXXXXXXXXXXXXXXXXXXXXXX.XXX.                               ",
"                                   .XXX.XXXXXXXXXXXXXXXXXXXXXXXX.XXX.                               ",
"                                   .XXX.XXXXXXXXXXXXXXXXXXXXXXXX.XXX.                               ",
"                                   .XXX.XXXXXXXXXXXXXXXXXXXXXXXX.XXX.                               ",
"                                   .XXX.XXXXXXXXXXXXXXXXXXXXXXXX.XXX.                               ",
"                                   .XXX.XXXXXXXXXXXXXXXXXXXXXXXX.XXX.                               ",
"                                   .XXX.XXXXXXXXXXXXXXXXXXXXXXXX.XXX.                               ",
"                                   .XXX.XXXXXXXXXXXXXXXXXXXXXXXX.XXX.                               ",
"                                   .XXX.XXXXXXXXXXXXXXXXXXXXXXXX.XXX.                               ",
"                                   .XXX.XXXXXXXXXXXXXXXXXXXXXXXX.XXX.                               ",
"                                   .XXX.XXXXXXXXXXXXXXXXXXXXXXXX.XXX.                               ",
"                                   .XXX.XXXXXXXXXXXXXXXXXXXXXXXX.XXX.                               ",
"                                   .XXX.XXXXXXXXXXXXXXXXXXXXXXXX.XXX.                               ",
"                                   .XXX.XXXXXXXXXXXXXXXXXXXXXXXX.XXX.                               ",
"                                   .XXX.XXXXXXXXXXXXXXXXXXXXXXXX.XXX.                               ",
"                                   .XXX.XXXXXXXXXXXXXXXXXXXXXXXX.XXX.                               ",
"                                   .....XXXXXXXXXXXXXXXXXXXXXXXX.....                               ",
"                                       .XXXXXXXXXXXXXXXXXXXXXXXX.                                   ",
"                                       .XXXXXXXXXXXXXXXXXXXXXXXX.                                   ",
"                                       .XXXXXXXXXXXXXXXXXXXXXXXX.                                   ",
"                                       .XXXXXXXXXXXXXXXXXXXXXXXX.                                   ",
"                                       .XXXXXXXXXXXXXXXXXXXXXXXX.                                   ",
"                                       .XXXXXXXXXXXXXXXXXXXXXXXX.                                   ",
"                                       .XXXXXXXXXXXXXXXXXXXXXXXX.                                   ",
"                                       .XXXXXXXXXXXXXXXXXXXXXXXX.                                   ",
"                                       .XXXXXXXXXXXXXXXXXXXXXXXX.                                   ",
"                                       .XXXXXXXXXXXXXXXXXXXXXXXX.                                   ",
"                                       .XXXXXXXXXXXXXXXXXXXXXXXX.                                   ",
"                                       .XXXXXXXXXXXXXXXXXXXXXXXX.                                   ",
"                                       .XXXXXXXXXXXXXXXXXXXXXXXX.                                   ",
"                                       .XXXXXXXXXXXXXXXXXXXXXXXX.                                   ",
"                                       ..........................                                   "
};
