/* XPM */
static char *_c49d7fc421044bb8524ec8921fc1573Lb761WYDdkvrGSJx[] = {
/* columns rows colors chars-per-pixel */
"100 100 5 1 ",
"  c None",
". c black",
"X c #63260C",
"o c #9C5A3C",
"O c white",
/* pixels */
"                                                                                                    ",
"                                                                                                    ",
"                                                                                                    ",
"                                                                                                    ",
"                                                                                                    ",
"                                                                                                    ",
"                                                                                                    ",
"                                                                                                    ",
"                                                                                                    ",
"                         ....................................................                       ",
"                         .XXXXXXXXXXXXXXXXXXXXXXXXXXXXXXXXXXXXXXXXXXXXXXXXXX.                       ",
"                         .XooooooooooooooooooooooooooooooooooooooooooooooooX.                       ",
"                         .XooooooooooooooooooooooooooooooooooooooooooooooooX.                       ",
"                         .XooooooooooooooooooooooooooooooooooooooooooooooooX.                       ",
"                         .XooooooooooooooooooooooooooooooooooooooooooooooooX.                       ",
"                         .XooooooooooooooooooooooooooooooooooooooooooooooooX.                       ",
"                         .XooooooooooooooooooooooooooooooooooooooooooooooooX.                       ",
"                         .XooooooooooooooooooooooooooooooooooooooooooooooooX.                       ",
"                         .XooooooooooooooooooooooooooooooooooooooooooooooooX.                       ",
"                         .XooooooooooooooooooooooooooooooooooooooooooooooooX.                       ",
"                         .XooooooooooooooooooooooooooooooooooooooooooooooooX.                       ",
"                         .XooooooooooooooooooooooooooooooooooooooooooooooooX.                       ",
"                         .XooooooooooooooooooooooooooooooooooooooooooooooooX.                       ",
"                         .XooooooooooooooooooooooooooooooooooooooooooooooooX.                       ",
"                         .XooooooooooooooooooooooooooooooooooooooooooooooooX.                       ",
"                         .XooooooooooooooooooooooooooooooooooooooooooooooooX.                       ",
"                         .XooooooooooooooooooooooooooooooooooooooooooooooooX.                       ",
"                         .XooooooooooooooooooooooooooooooooooooooooooooooooX.                       ",
"                         .XooooooooooooooooooooooooooooooooooooooooooooooooX.                       ",
"                         .XooooooooooooooooooooooooooooooooooooooooooooooooX.                       ",
"                         .XooooooooooooooooooooooooooooooooooooooooooooooooX.                       ",
"                         .XooooooooooooooooooooooooooooooooooooooooooooooooX.                       ",
"                         .XooooooooooooooooooooooooooooooooooooooooooooooooX.                       ",
"                         .XooooooooooooooooooooooooooooooooooooooooooooooooX.                       ",
"                         .XooooooooooooooooooooooooooooooooooooooooooooooooX.                       ",
"                         .XooooooooooooooooooooooooooooooooooooooooooooooooX.                       ",
"                         .XooooooooooooooooooooooooooooooooooooooooooooooooX.                       ",
"                         .XooooooooooooooooooooooooooooooooooooooooooooooooX.                       ",
"                         .XooooooooooooooooooooooooooooooooooooooooooooooooX.                       ",
"                         .XooooooooooooooooooooooooooooooooooooooooooooooooX.                       ",
"                         .XooooooooooooooooooooooooooooooooooooooooooooooooX.                       ",
"                         .XooooooooooooooooooooooooooooooooooooooooooooooooX.                       ",
"                         .XooooooooooooooooooooooooooooooooooooooooooooooooX.                       ",
"                         .XooooooooooooooooooooooooooooooooooooooooooooooooX.                       ",
"                         .XooooooooooooooooooooooooooooooooooooooooooooooooX.                       ",
"                         .XooooooooooooooooooooooooooooooooooooooooooooooooX.                       ",
"                         .XooooooooooooooooooooooooooooooooooooooooooooooooX.                       ",
"                         .XooooooooooooooooooooooooooooooooooooooooooooooooX.                       ",
"                         .XooooooooooooooooooooooooooooooooooooooooooooooooX.                       ",
"                         .XooooooooooooooooooooooooooooooooooooooooooooooooX.                       ",
"                         .XooooooooooooooooooooooooooooooooooooooooooooooooX.                       ",
"                         .XooooooooooooooooooooooooooooooooooooooooooooooooX.                       ",
"                         .XooooooooooooooooooooooooooooooooooooooooooooooooX.                       ",
"                         .XooooooooooooooooooooooooooooooooooooooooooooooooX.                       ",
"                         .XooooooooooooooooooooooooooooooooooooooooooooooooX.                       ",
"                         .XooooooooooooooooooooooooooooooooooooooooooooooooX.                       ",
"                         .XooooooooooooooooooooooooooooooooooooooooooooooooX.                       ",
"                         .XooooooooooooooooooooooooooooooooooooooooooooooooX.                       ",
"                         .XooooooooooooooooooooooooooooooooooooooooooooooooX.                       ",
"                         .XooooooooooooooooooooooooooooooooooooooooooooooooX.                       ",
"                         .XooooooooooooooooooooooooooooooooooooooooooooooooX.                       ",
"                         .XooooooooooooooooooooooooooooooooooooooooooooooooX.                       ",
"                         .XooooooooooooooooooooooooooooooooooooooooooooooooX.                       ",
"                         .XooooooooooooooooooooooooooooooooooooooooooooooooX.                       ",
"                         .XooooooooooooooooooooooooooooooooooooooooooooooooX.                       ",
"                         .XooooooooooooooooooooooooooooooooooooooooooooooooX.                       ",
"                         .XooooooooooooooooooooooooooooooooooooooooooooooooX.                       ",
"                         .XooooooooooooooooooooooooooooooooooooooooooooooooX.                       ",
"                         .XooooooooooooooooooooooooooooooooooooooooooooooooX.                       ",
"                         .XooooooooooooooooooooooooooooooooooooooooooooooooX.                       ",
"                         .XooooooooooooooooooooooooooooooooooooooooooooooooX.                       ",
"                         .XooooooooooooooooooooooooooooooooooooooooooooooooX.                       ",
"                         .XooooooooooooooooooooooooooooooooooooooooooooooooX.                       ",
"                         .XooooooooooooooooooooooooooooooooooooooooooooooooX.                       ",
"                         .XooooooooooooooooooooooooooooooooooooooooooooooooX.                       ",
"                         .XooooooooooooooooooooooooooooooooooooooooooooooooX.                       ",
"                         .XooooooooooooooooooooooooooooooooooooooooooooooooX.                       ",
"                         .XooooooooooooooooooooooooooooooooooooooooooooooooX.                       ",
"                         .XooooooooooooooooooooooooooooooooooooooooooooooooX.                       ",
"                         .XooooooooooooooooooooooooooooooooooooooooooooooooX.                       ",
"                         .XooooooooooooooooooooooooooooooooooooooooooooooooX.                       ",
"                         .XooooooooooooooooooooooooooooooooooooooooooooooooX.                       ",
"                         .XooooooooooooooooooooooooooooooooooooooooooooooooX.                       ",
"                         .XooooooooooooooooooooooooooooooooooooooooooooooooX.                       ",
"                         .XXXXXXXXXXXXXXXXXXXXXXXXXXXXXXXXXXXXXXXXXXXXXXXXXX.                       ",
"                         ....................................................                       ",
"                                                                                                    ",
"                                                                                                    ",
"                                                                                                    ",
"                                                                                                    ",
"                                                                                                    ",
"                                                                                                    ",
"                                                                                                    ",
"                                                                                                    ",
"                                                                                                    ",
"                                                                                                    ",
"                                                                                                    ",
"                                                                                                    ",
"                                                                                                    ",
"                                                                                                    "
};
