/* XPM */
static char *_3d010d9f79941afb376bfbcfd6a5b3dDiFYSgAoN4GhEizb[] = {
/* columns rows colors chars-per-pixel */
"100 100 5 1 ",
"  c None",
". c black",
"X c #63260C",
"o c #9C5A3C",
"O c white",
/* pixels */
"                                                                                                    ",
"                                                                                                    ",
"                                                                                                    ",
"                                                                                                    ",
"                                                                                                    ",
"                                                                                                    ",
"                                                                                                    ",
"                                                                                                    ",
"                                                                                                    ",
"                         ....................................................                       ",
"                         ..................................................X.                       ",
"                         ................................................XXX.                       ",
"                         .............................................XXXXoX.                       ",
"                         ..........................................XXXXooooX.                       ",
"                         ........................................XXXoooooooX.                       ",
"                         .....................................XXXXoooooooooX.                       ",
"                         ..................................XXXXooooooooooooX.                       ",
"                         ................................XXXoooooooooooooooX.                       ",
"                         .............................XXXXoooooooooooooooooX.                       ",
"                         ...........................XXXooooooooooooooooooooX.                       ",
"                         ........................XXXXooooooooooooooooooooooX.                       ",
"                         .....................XXXXoooooooooooooooooooooooooX.                       ",
"                         ...................XXoooooooooooooooooooooooooooooX.                       ",
"                         ..................XoooooooooooooooooooooooooooooooX.                       ",
"                         ..................XoooooooooooooooooooooooooooooooX.                       ",
"                         ..................XoooooooooooooooooooooooooooooooX.                       ",
"                         ..................XoooooooooooooooooooooooooooooooX.                       ",
"                         ..................XoooooooooooooooooooooooooooooooX.                       ",
"                         ..................XoooooooooooooooooooooooooooooooX.                       ",
"                         ..................XoooooooooooooooooooooooooooooooX.                       ",
"                         ..................XoooooooooooooooooooooooooooooooX.                       ",
"                         ..................XoooooooooooooooooooooooooooooooX.                       ",
"                         ..................XoooooooooooooooooooooooooooooooX.                       ",
"                         ..................XoooooooooooooooooooooooooooooooX.                       ",
"                         ..................XoooooooooooooooooooooooooooooooX.                       ",
"                         ..................XoooooooooooooooooooooooooooooooX.                       ",
"                         ..................XoooooooooooooooooooooooooooooooX.                       ",
"                         ..................XoooooooooooooooooooooooooooooooX.                       ",
"                         ..................XoooooooooooooooooooooooooooooooX.                       ",
"                         ..................XoooooooooooooooooooooooooooooooX.                       ",
"                         ..................XoooooooooooooooooooooooooooooooX.                       ",
"                         ..................XoooooooooooooooooooooooooooooooX.                       ",
"                         ..................XoooooooooooooooooooooooooooooooX.                       ",
"                         ..................XoooooooooooooooooooooooooooooooX.                       ",
"                         ..................XoooooooooooooooooooooooooooooooX.                       ",
"                         ..................XoooooooooooooooooooooooooooooooX.                       ",
"                         ..................XoooooooooooooooooooooooooooooooX.                       ",
"                         ..................XoooooooooooooooooooooooooooooooX.                       ",
"                         ..................XoooooooooooooooooooooooooooooooX.                       ",
"                         ..................XoooooooooooooooooooooooooooooooX.                       ",
"                         ..................XoooooooooooooooooooooooooooooooX.                       ",
"                         ..................XoooooooooooooooooooooooooooooooX.                       ",
"                         ..................XoooooooooooooooooooooooooooooooX.                       ",
"                         ..................XoooooooooooooooooooooooooooooooX.                       ",
"                         ..................XoooooooooooooooooooooooooooooooX.                       ",
"                         ..................XoooooooooooooooooooooooooooooooX.                       ",
"                         ..................XoooooooooooooooooooooooooooooooX.                       ",
"                         ..................XoooooooooooooooooooooooooooooooX.                       ",
"                         ..................XoooooooooooooooooooooooooooooooX.                       ",
"                         ..................XoooooooooooooooooooooooooooooooX.                       ",
"                         ..................XoooooooooooooooooooooooooooooooX.                       ",
"                         ..................XoooooooooooooooooooooooooooooooX.                       ",
"                         ..................XoooooooooooooooooooooooooooooooX.                       ",
"                         ..................XoooooooooooooooooooooooooooooooX.                       ",
"                         ..................XoooooooooooooooooooooooooooooooX.                       ",
"                         ..................XoooooooooooooooooooooooooooooooX.                       ",
"                         ..................XoooooooooooooooooooooooooooooooX.                       ",
"                         ..................XoooooooooooooooooooooooooooooooX.                       ",
"                         ..................XoooooooooooooooooooooooooooooooX.                       ",
"                         ..................XoooooooooooooooooooooooooooooooX.                       ",
"                         ..................XoooooooooooooooooooooooooooooooX.                       ",
"                         ..................XoooooooooooooooooooooooooooooooX.                       ",
"                         ..................XoooooooooooooooooooooooooooooooX.                       ",
"                         ..................XoooooooooooooooooooooooooooooooX.                       ",
"                         ..................XoooooooooooooooooooooooooooooooX.                       ",
"                         ..................XoooooooooooooooooooooooooooooooX.                       ",
"                         ..................XoooooooooooooooooooooooooooooooX.                       ",
"                         ..................XoooooooooooooooooooooooooooooooX.                       ",
"                         ..................XoooooooooooooooooooooooooooooooX.                       ",
"                         ..................XoooooooooooooooooooooooooooooooX.                       ",
"                         ..................XoooooooooooooooooooooooooooooooX.                       ",
"                         ..................XoooooooooooooooooooooooooooooooX.                       ",
"                         ..................XoooooooooooooooooooooooooooooooX.                       ",
"                         ..................XoooooooooooooooooooooooooooooooX.                       ",
"                         ..................XoooooooooooooooooooooooooooooooX.                       ",
"                         ..................XoooooooooooooooooooooooooooXXXX..                       ",
"                                          .XoooooooooooooooooooooooooXXXX..                         ",
"                                          .XooooooooooooooooooooooXXXX...                           ",
"                                          .XooooooooooooooooooooXXX...                              ",
"                                          .XoooooooooooooooooXXXX..                                 ",
"                                          .XooooooooooooooXXXX...                                   ",
"                                          .XooooooooooooXXX...                                      ",
"                                          .XooooooooXXXXX..                                         ",
"                                          .XoooooooXXX...                                           ",
"                                          .XooooXXXX..                                              ",
"                                          .XoXXXX...                                                ",
"                                          .XXX...                                                   ",
"                                          .X..                                                      ",
"                                          ..                                                        ",
"                                                                                                    "
};
