/* XPM */
static char *accbf5f7c53d42f78f3f801c17dce54fBGKxpdEGfg87NBYp[] = {
/* columns rows colors chars-per-pixel */
"100 100 2 1 ",
"  c None",
". c black",
/* pixels */
"                                                                                                    ",
"                                                                                                    ",
"                                                                                                    ",
"                                                                                                    ",
"                                                                                                    ",
"                                                                                                    ",
"                                                                                                    ",
"                                                                                                    ",
"                                                                                                    ",
"                                                                                                    ",
"                                                                                                    ",
"                                                                                                    ",
"                                                                                                    ",
"                                                                                                    ",
"                                                                                                    ",
"                                                                                                    ",
"                                                                                                    ",
"                                                                                                    ",
"                                                                                                    ",
"                                                                                                    ",
"                                                                                                    ",
"                                                                                                    ",
"                                                                                                    ",
"                                                                                                    ",
"                                                                                                    ",
"                                                                                                    ",
"                                                                                                    ",
"                                                                                                    ",
"                                                                                                    ",
"                                                                                                    ",
"                                                                                                    ",
"                                  .......                     ..............                        ",
"                                  .......                     ..............                        ",
"                                  .......                     ..............                        ",
"                                  .......                     ..............                        ",
"                                  .......                     ..............                        ",
"                                  .......                     ..............                        ",
"                                  .......                     ..............                        ",
"                           ..............              .......              .......                 ",
"                           ..............              .......              .......                 ",
"                           ..............              .......              .......                 ",
"                           ..............              .......              .......                 ",
"                           ..............              .......              .......                 ",
"                           ..............              .......              .......                 ",
"                           ..............              .......              .......                 ",
"                    .......       .......                            .......                        ",
"                    .......       .......                            .......                        ",
"                    .......       .......                            .......                        ",
"                    .......       .......                            .......                        ",
"                    .......       .......                            .......                        ",
"                    .......       .......                            .......                        ",
"                    .......       .......                            .......                        ",
"                    ............................              .......                               ",
"                    ............................              .......                               ",
"                    ............................              .......                               ",
"                    ............................              .......                               ",
"                    ............................              .......                               ",
"                    ............................              .......                               ",
"                    ............................              .......                               ",
"                                  .......              ............................                 ",
"                                  .......              ............................                 ",
"                                  .......              ............................                 ",
"                                  .......              ............................                 ",
"                                  .......              ............................                 ",
"                                  .......              ............................                 ",
"                                  .......              ............................                 ",
"                                                                                                    ",
"                                                                                                    ",
"                                                                                                    ",
"                                                                                                    ",
"                                                                                                    ",
"                                                                                                    ",
"                                                                                                    ",
"                                                                                                    ",
"                                                                                                    ",
"                                                                                                    ",
"                                                                                                    ",
"                                                                                                    ",
"                                                                                                    ",
"                                                                                                    ",
"                                                                                                    ",
"                                                                                                    ",
"                                                                                                    ",
"                                                                                                    ",
"                                                                                                    ",
"                                                                                                    ",
"                                                                                                    ",
"                                                                                                    ",
"                                                                                                    ",
"                                                                                                    ",
"                                                                                                    ",
"                                                                                                    ",
"                                                                                                    ",
"                                                                                                    ",
"                                                                                                    ",
"                                                                                                    ",
"                                                                                                    ",
"                                                                                                    ",
"                                                                                                    ",
"                                                                                                    "
};
