/* XPM */
static char *a6b557f78e38403885cb28c33fdb0abejhOiYgWcpLbI4lb6[] = {
/* columns rows colors chars-per-pixel */
"100 100 7 1 ",
"  c None",
". c black",
"X c #464646",
"o c #22B14C",
"O c #A8E61D",
"+ c #6F3198",
"@ c #B4B4B4",
/* pixels */
"                                                                                                    ",
"                                                                                                    ",
"                                                                                                    ",
"                                                                                                    ",
"                                                                                                    ",
"                                                                                                    ",
"                                                                                                    ",
"                                                                                                    ",
"                                                                                                    ",
"                                                                                                    ",
"                                                                                                    ",
"                                                                                                    ",
"                                                                                                    ",
"                                                                                                    ",
"                                                                                                    ",
"                                                                                                    ",
"                                                                                                    ",
"                                                                                                    ",
"                                                                                                    ",
"                                                ........                                            ",
"                                        ......................                                      ",
"                                      .......@@@@@@@@@@@@@@@....                                    ",
"                                   ......@@@@@@@@@@@@@@@@@@@@@@....                                 ",
"                                 .....@@@@@@@@@@@@@@@@@@@@@@@@@@.....                               ",
"                             ......@@@@@@@@@@@@@@@@@@@@@@@@@@@@Oooo...                              ",
"                            ..ooo@@@@@@@@@@@@@@@@@@@@@@@@@@@@OOOooOoo..                             ",
"                          ..@@@oOo@@@@@@@@@@@@@@@@@@@@@@@@@@OOooOo...o..                            ",
"                         ..@@@@@o+oo@@@@@@@@@@@@@@@@@@@@@@@@@@o+ooooo...                            ",
"                        ..@@@@@OOoo..@@@@@@@@@@@@@@@@@@@@@@@@@@@@oooo..o.                           ",
"                        .@@@@@@OOOoo..@@@@@@@@@@@@@@@@@@@@@@@@@@@@@@o.OOo.                          ",
"                       .@@@@@@@@OO+oO.@@@@@@@@@@@@@@@@@@@@@@@@@@@@@@@oooo.                          ",
"                       .@@@@@@@@@Oooo...@@@@@@@@@@@@@@@@@@@@@@@@@@@OOOoOo..                         ",
"                      .@@@@@@@@@@Oo+oOo.@@@@@@@@@@@@@@@@@@@@@@OOOOOoo+OOo...                        ",
"                     ..@@@@@@@@@@@OOOooo@@@@@@@@@@@@@@@@@@@@OOO+Oo+oooooo...                        ",
"                     .@@@@@@@@@@@@OOOOoo@@@@@@@@@@@@@@@@@OOOOOOooooooo.ooo...                       ",
"                     .@@@@@@@@@@@@O@@@OOo@@@@@@@@@@@@@@@@OOoo@@@@@O....ooO...                       ",
"                    .@@@@@@@@@@@@@O@@@@OO@@@@@@@@@@@@@@@@@@@@@@@@OO.@oooOO...                       ",
"                    .@@@@@@@@@@@@@@@@@@@OO@@@@@@@@@@@@@@@@@@@@@@@O@@@oOooo@..                       ",
"                    .@@@@@@@@@@@@@@@@@@@@Oo@@@@@@@@@@@@@@@@@@@@@@@@@@ooOo@@..                       ",
"                   .@@@@@@@@@@@@@@@@@@@@@@o@@@@@@@@@@@@@@@@@@@@@@@@@oooOo@@@..                      ",
"                   .@@@@@@@@@@@@@@@@@@@@@@@@@@@@@@@@@@@@@@@@@@@@@@@oOOo@@@@@..                      ",
"                   .@@@@@@@@@@@@@@@@@@@@@@@@@@@@@@@@@@@@@@@@@@@@@@@ooo@@@@@@...                     ",
"                  .@@@@@@@@@@@@@@@@@@@@@@@@@@@@@@OOOOO@@@@@@@@@@@@@@@@@@@@@@...                     ",
"                  .@@@@@@@@@@@@@@@@@@@@@@@@@@@@@OO...O@@@@@@@@@@@@@@@@@@@@@@@..                     ",
"                  .@@@@@@@@@@@@@@@@@@@@@@@@@@@@OOOOOOO@@@@@@@@@@@@@@@@@@@@@@@...                    ",
"                  .@@@@@@@@@@@@@@@@@@@@@@@@@@@@@@+O@@@@@@@@@@@@@@@@@@@@@@@@@@...                    ",
"                 .@@@@@@@@@@@@@@@@@@@@@@@@@@@@@@@O@@@@@@@@@@@@@@@@@@@@@@@@@@@.X.                    ",
"                 .@@@@@@@@@@@@@@@@@@@@@@@@@@@@@@@@@@@@@@@@@@@@@@@@@@@@@@@@@@@@..                    ",
"                 .@@@@@@@@@@@@@@@@@@@@@@@@@@@@@@@@@@@@@@@@@@@@@@@@@@@@@@@@@@@@..                    ",
"                 .@@@@@@@@@@@@@@@@@@@@@@@@@@@@@@@@@@@@@@@@@@@@@@@@@@@@@@@@@@@@...                   ",
"                .@@@@@@@@..@@@@@@..@@@@....@@@@..@@@@@@@@..@@@@@@@@@@@@@@@@@@@...                   ",
"                .@@@@@@@@..@@@@@@..@@@@....@@@@..@@@@@@@@..@@@@@@@@@@@@@@@@@@@@..                   ",
"                .@@@@@@@@..@@@@@@..@@..@@@@..@@..@@@@@@@@..@@@@@@@@@@@@@@@@@@@@..                   ",
"                .@@@@@@@@..@@@@@@..@@..@@@@..@@..@@@@@@@@..@@@@@@@@@@@@@@@@@@@@..                   ",
"                .@@@@@@@@..@@..@@..@@........@@..@@@@@@@@..@@@@@@@@@@@@@@@@@@@@@.                   ",
"                .@@@@@@@@..@@..@@..@@........@@..@@@@@@@@..@@@@@@@@@@@@@@@@@@@@@..                  ",
"                .@@@@@@@@....@@....@@..@@@@..@@..@@@@@@@@..@@@@@@@@@@@@@@@@@@@@@..                  ",
"                .@@@@@@@@....@@....@@..@@@@..@@..@@@@@@@@..@@@@@@@@@@@@@@@@@@@@@..                  ",
"                .@@@@@@@@..@@@@@@..@@..@@@@..@@........@@........@@@@@@@@@@@@@@@..                  ",
"                .@@@@@@@@..@@@@@@..@@..@@@@..@@........@@........@@@@@@@@@@@@@@@..                  ",
"                .@@@@@@@@@@@@@@@@@@@@@@@@@@@@@@@@@@@@@@@@@@@@@@@@@@@@@@@@@@@@@@@...                 ",
"                .@@@@@@@@@@@@@@@@@@@@@@@@@@@@@@@@@@@@@@@@@@@@@@@@@@@@@@@@@@@@@@@@..                 ",
"                .@@@@@@@@@@@@@@@@@@@@@@@@@@@@@@OOooOO@@@@@@@@@@@@@@@@@@@@@@@@@@@@.X.                ",
"                .@@@@@@@@@@@@@@@@@@@@@@@@@@@@OO++++oO@@@@@@@@@@@@@@@@@@@@@@@@@@@@.X.                ",
"                .@@@@@@@@@@@@@@@@@@@@@@@@@OOOoo..oo@@@@@@@@@@@@@@@@@@@@@@@@@@@@@@.X.                ",
"                .@@@@@@@@@@@@@@@@@@@@@@@OOOoo..@@@@@@@@@@@@@@@@@@@@@@@@@@@@@@@@@@.XX.               ",
"                .@@@@@@@@@@@@@@@@@@@@@@OOOo...@@@@@@@@@@@@@@@@@@@@@@@@@@@@@@@@@@@.XX.               ",
"               .@@@@@@@@@@@@@@@@@@@@@@@ooo@@@@@@@@@@@@@@@@@@@@@@@@@@@@@@@@@@@@@@@.XX.               ",
"               .@@@@@@@@@@@@@@@@@@@@@@@@@@@@@@@@@@@@@@@@@@@@@@@@@@@@..@@@@@@@@@@@.XX.               ",
"               .@@@@@@@@@@@@@@@@@@@@@@@@@@@@@@@@@@@@@@@@@@@@@@@@@@@@@....@@@@@@@@@.XX.              ",
"               .@@@@@@@@@@@@@@@@@@@@@@@@@@@@@@@@@@@@@@@@@@@@@@@@@@@@@@@@.....@@@@@.XX.              ",
"               .@@@@@@@@@@@@@@@@@@@@@@@@@@@@@@@@@@@@@@@@@@@@@@@@@@@@@@@@@@@@.@@@@@.XX.              ",
"               .@@@oOO@@@@@@@@@@@@@@@@@@@@@@@@@@@@@@@@@@@@@@@@@@@@@@@@@@@@@@@@@@@@.XX.              ",
"               .@@@oOO@@@@@@@@@@@@@@@@@@@@@@@@@@@@@@@@@@@@@@@@@@@@@@@@@@@@@@@@@@@@.XX.              ",
"               .@@..O@@@@@@@@@@@@@@@@@@@@@@@@@@@@@@@@@@@@@@@@@@@@@@@@@@@@@@@@@@@@@.XX.              ",
"               .@..OO@@@@@@@@@@@@@@@@@@@@@@@@@@@@@@@@@@@@@@@@@@@@@@@@@@@@@@@@@@@@@.XXX.             ",
"               .@.oO@@@@@@@@@@@@@@@@@@@@@@@@@@@@@@@@@@@@@@@@@@@@@@@@@@@@@@@@@@@@@@.XXX.             ",
"               ..oOO@@@@@@@@@@@@@@@@@@@@@@@@@@@@@@@@@@@@@@@@@@@@@@@@@@@@@@@@@@@@@@.XXX.             ",
"               ..oO@@@@@@@@@@@@@@@@@@@@@@@@@@oo@@@@@@@@@@@@@@@@@@@@@@@@@@@@@@@@@@@.XXX.             ",
"               .ooO@@@@@@@@@@@@@@@@@@@@@@@oooo@@@@@@@@@@@@@@@@o@@@@@@@@@@@@@@@@@@@.XXX.             ",
"               .ooO@@@@@@@@@@@@@@@@@@@@@OOoo@@@@@@@@@@@ooOOoooooOoooOOO@@@@@@@@@@@.XXX.             ",
"               .OoO@@@@@@@@@@@@@@@OOOOOOo@@@@@@@@@@oOOoOOoOOOOooOoooOooOO@@@@@@@@@.XX..             ",
"                .oOo@@OOOOOOOO@OOOOoOoo@@@@@@@@ooooooooooo+ooo+oOOOOooooOooo@@@@O@.XX.              ",
"                .o@OoOOOOOOOOOOOoo+oo@@@@@@oo+oooooOoo+oooooooooooooooooooOOoOO@@@.XX.              ",
"                ...Ooooooooooooooooo+ooo+ooooooooooOooooo++ooo+ooooo+ooOoooOOoOoO..XX..             ",
"                   ................ooooooooo+oooooooooooooooooooOOOOoooOooooooooo....               ",
"                                   .................oooooooooooooooOOoOOoo.........                 ",
"                                                    ......................                          ",
"                                                                                                    ",
"                                                                                                    ",
"                                                                                                    ",
"                                                                                                    ",
"                                                                                                    ",
"                                                                                                    ",
"                                                                                                    ",
"                                                                                                    ",
"                                                                                                    ",
"                                                                                                    ",
"                                                                                                    ",
"                                                                                                    "
};
